{
  "accessors": [
    {
      "bufferView": 2,
      "componentType": 5126,
      "count": 833,
      "max": [
        0.895748496055603,
        0.8957483768463135,
        1.6789960861206055
      ],
      "min": [
        -0.895748496055603,
        -0.8957483768463135,
        -2.120431661605835
      ],
      "type": "VEC3"
    },
    {
      "bufferView": 2,
      "byteOffset": 9996,
      "componentType": 5126,
      "count": 833,
      "max": [
        0.9965969920158386,
        0.9965969920158386,
        0.4486837089061737
      ],
      "min": [
        -0.9965969920158386,
        -0.9965968728065491,
        -1.0
      ],
      "type": "VEC3"
    },
    {
      "bufferView": 1,
      "componentType": 5126,
      "count": 833,
      "max": [
        0.9692646265029907,
        0.9708766341209412
      ],
      "min": [
        0.002978099975734949,
        0.03669765964150429
      ],
      "type": "VEC2"
    },
    {
      "bufferView": 0,
      "componentType": 5125,
      "count": 3936,
      "type": "SCALAR"
    },
    {
      "bufferView": 2,
      "byteOffset": 19992,
      "componentType": 5126,
      "count": 693,
      "max": [
        0.4727614223957062,
        0.487082302570343,
        2.1513094902038574
      ],
      "min": [
        -0.4727614223957062,
        -0.4870823323726654,
        1.678995966911316
      ],
      "type": "VEC3"
    },
    {
      "bufferView": 2,
      "byteOffset": 28308,
      "componentType": 5126,
      "count": 693,
      "max": [
        0.9956610202789307,
        0.997778058052063,
        1.0
      ],
      "min": [
        -0.9956610202789307,
        -0.997778058052063,
        -0.836956262588501
      ],
      "type": "VEC3"
    },
    {
      "bufferView": 1,
      "byteOffset": 6664,
      "componentType": 5126,
      "count": 693,
      "max": [
        0.9647294878959656,
        0.9970220327377319
      ],
      "min": [
        0.002978104166686535,
        0.0029780762270092964
      ],
      "type": "VEC2"
    },
    {
      "bufferView": 0,
      "byteOffset": 15744,
      "componentType": 5125,
      "count": 2856,
      "type": "SCALAR"
    }
  ],
  "asset": {
    "extras": {
      "author": "CrZ (https://sketchfab.com/CrZZ)",
      "license": "CC-BY-4.0 (http://creativecommons.org/licenses/by/4.0/)",
      "source": "https://sketchfab.com/3d-models/almond-water-backrooms-c63de5037da941da9c8a636c7a25a73b",
      "title": "Almond Water [Backrooms]"
    },
    "generator": "Sketchfab-15.79.0",
    "version": "2.0"
  },
  "bufferViews": [
    {
      "buffer": 0,
      "byteLength": 27168,
      "name": "floatBufferViews",
      "target": 34963
    },
    {
      "buffer": 0,
      "byteLength": 12208,
      "byteOffset": 27168,
      "byteStride": 8,
      "name": "floatBufferViews",
      "target": 34962
    },
    {
      "buffer": 0,
      "byteLength": 36624,
      "byteOffset": 39376,
      "byteStride": 12,
      "name": "floatBufferViews",
      "target": 34962
    }
  ],
  "buffers": [
    {
      "byteLength": 76000,
      "uri": "scene.bin"
    }
  ],
  "extensionsUsed": [
    "KHR_materials_specular"
  ],
  "images": [
    {
      "uri": "textures/BakeLabel_baseColor.png"
    }
  ],
  "materials": [
    {
      "doubleSided": true,
      "name": "BakeLabel",
      "pbrMetallicRoughness": {
        "baseColorTexture": {
          "index": 0
        },
        "metallicFactor": 0.0,
        "roughnessFactor": 0.8211145618000169
      }
    },
    {
      "doubleSided": true,
      "extensions": {
        "KHR_materials_specular": {
          "specularColorFactor": [
            1.0,
            1.0,
            1.0
          ],
          "specularFactor": 0.5470492862454438
        }
      },
      "name": "BakeCover",
      "pbrMetallicRoughness": {
        "baseColorFactor": [
          0.8,
          0.8,
          0.8,
          1.0
        ],
        "roughnessFactor": 0.2262741699796952
      }
    }
  ],
  "meshes": [
    {
      "name": "AlmondWater_BakeLabel_0",
      "primitives": [
        {
          "attributes": {
            "NORMAL": 1,
            "POSITION": 0,
            "TEXCOORD_0": 2
          },
          "indices": 3,
          "material": 0,
          "mode": 4
        }
      ]
    },
    {
      "name": "AlmondWater_BakeCover_0",
      "primitives": [
        {
          "attributes": {
            "NORMAL": 5,
            "POSITION": 4,
            "TEXCOORD_0": 6
          },
          "indices": 7,
          "material": 1,
          "mode": 4
        }
      ]
    }
  ],
  "nodes": [
    {
      "children": [
        1
      ],
      "matrix": [
        1.0,
        0.0,
        0.0,
        0.0,
        0.0,
        2.220446049250313e-16,
        -1.0,
        0.0,
        0.0,
        1.0,
        2.220446049250313e-16,
        0.0,
        0.0,
        0.0,
        0.0,
        1.0
      ],
      "name": "Sketchfab_model"
    },
    {
      "children": [
        2
      ],
      "matrix": [
        0.009999999776482582,
        0.0,
        0.0,
        0.0,
        0.0,
        0.0,
        0.009999999776482582,
        0.0,
        0.0,
        -0.009999999776482582,
        0.0,
        0.0,
        0.0,
        0.0,
        0.0,
        1.0
      ],
      "name": "AlmondWater.fbx"
    },
    {
      "children": [
        3
      ],
      "name": "RootNode"
    },
    {
      "children": [
        4,
        5
      ],
      "matrix": [
        100.0,
        0.0,
        0.0,
        0.0,
        0.0,
        -1.629206793918314e-05,
        -99.99999999999868,
        0.0,
        0.0,
        99.99999999999868,
        -1.629206793918314e-05,
        0.0,
        0.0,
        0.0,
        0.0,
        1.0
      ],
      "name": "AlmondWater"
    },
    {
      "mesh": 0,
      "name": "AlmondWater_BakeLabel_0"
    },
    {
      "mesh": 1,
      "name": "AlmondWater_BakeCover_0"
    }
  ],
  "samplers": [
    {
      "magFilter": 9729,
      "minFilter": 9987,
      "wrapS": 10497,
      "wrapT": 10497
    }
  ],
  "scene": 0,
  "scenes": [
    {
      "name": "Sketchfab_Scene",
      "nodes": [
        0
      ]
    }
  ],
  "textures": [
    {
      "sampler": 0,
      "source": 0
    }
  ]
}
